Genre:Action | Drama | Thriller
Language:English
IMDb:http://www.imdb.com/title/tt0477080/
Source:.ELEKTRI4KA/Audio:Lu.Thx


General
Complete name :Unstoppable 2010 Cam XviD Feel-Free
Format : AVI
Format/Info : Audio Video Interleave
File size : 1.38 GiB
Duration : 1h 32mn
Overall bit rate : 2 136 Kbps
Video #0
Codec ID : XVID
Codec ID/Hint : XviD
Duration : 1h 32mn
Bit rate : 1 998 Kbps
Width : 640 pixels
Height : 272 pixels
Display aspect ratio : 2.567
Frame rate : 25.000 fps
Resolution : 24 bits
Colorimetry : 4:2:0
Scan type : Progressive
Bits/(Pixel*Frame) : 0.459
Stream size : 1.29 GiB (94%)
Writing library : XviD 1.2.1 (UTC 2008-12-04)
Audio #1
ID : 1
Format : MPEG Audio
Format version : Version 1
Format profile : Layer 3
Codec ID : 55
Codec ID/Hint : MP3
Duration : 1h 32mn
Bit rate mode : Constant
Bit rate : 128 Kbps
Channel(s) : 2 channels
Sampling rate : 44.1 KHz
Resolution : 16 bits
Stream size : 84.6 MiB (6%)
Alignment : Split accross interleaves
Interleave, duration : 40 ms (1.00 video frame)
Interleave, preload duration : 500 ms

Plot:
With an unmanned, half-mile-long freight train barreling toward a city, a veteran engineer and a young conductor race against the clock to prevent a catastrophe

screens 
http://rapidhdd.com/images/635935vlcsnap-2010-11-20-18h47m00s210.png
http://www.rapidhdd.com/images/139612vlcsnap-2010-11-20-18h48m26s52.png
http://www.rapidhdd.com/images/401924vlcsnap-2010-11-20-18h49m11s242.png
http://www.rapidhdd.com/images/525534vlcsnap-2010-11-20-18h49m45s80.png
http://www.rapidhdd.com/images/183472vlcsnap-2010-11-20-18h49m54s163.png